<svg width="64" height="64" viewBox="0 0 64 64" fill="none" xmlns="http://www.w3.org/2000/svg">
<g clip-path="url(#clip0_1716_1587)">
<rect width="64" height="64" rx="12.8" fill="#E2E10B"/>
<path d="M35.6855 50.6738C51.5972 68.3206 77.5136 66.6962 93.4991 51.3753" stroke="#01A187" stroke-width="5.90688"/>
<path d="M29.9277 55.5475L41.0401 45.875" stroke="#01A187" stroke-width="5.90688"/>
<path d="M44.066 11.1347L41.9248 9.91637L48.645 -4.7898C49.4433 -6.53658 51.6037 -7.17122 53.2198 -6.13369C54.7851 -5.1288 55.146 -2.99484 53.9982 -1.53109L44.066 11.1347Z" fill="#01A187"/>
<path d="M33.5078 7.25834H29.5207L28.1187 -12.3699C27.9786 -14.3315 29.5321 -16 31.4987 -16C33.4631 -16 35.0159 -14.335 34.8791 -12.3753L33.5078 7.25834Z" fill="#01A187"/>
<rect x="11.5409" y="19.6269" width="107.431" height="62.1699" rx="17.13" stroke="#01A187" stroke-width="6.05455"/>
<path d="M9.35582 -2.34093L19.146 10.5441L21.5457 9.54727L14.9654 -5.62391C14.2113 -7.36259 12.1428 -8.09953 10.4592 -7.22936C8.65335 -6.29598 8.12596 -3.95954 9.35582 -2.34093Z" fill="#01A187"/>
</g>
<defs>
<clipPath id="clip0_1716_1587">
<rect width="64" height="64" rx="12.8" fill="white"/>
</clipPath>
</defs>
</svg>
